<svg width="328" height="195" viewBox="0 0 328 195" fill="none" xmlns="http://www.w3.org/2000/svg">
<g id="Frame 2">
<g id="under-side" filter="url(#filter0_d_4_2)">
<ellipse id="placeholder" cx="106.5" cy="143.121" rx="3" ry="2.5" fill="#D9D9D9"/>
<path id="under-side-darkness-3" d="M89 133.121L133.079 143.702L132.5 150.621L92.2212 140.441C89.4025 139.728 87.7836 136.77 88.703 134.012L89 133.121Z" fill="#1E2017"/>
</g>
<g id="under-front" filter="url(#filter1_d_4_2)">
<path id="under-front-darkness-1" d="M125.5 141.121L173.248 138.574L173.096 141.065C173.039 141.98 172.369 142.739 171.468 142.908L165 144.121L127.5 146.621L125.5 141.121Z" fill="#1E2017"/>
<path id="under-front-darkness-2" d="M130.755 144.266L161.861 140.621L162.372 144.99C162.501 146.087 161.716 147.08 160.619 147.209L131.5 150.621L130.755 144.266Z" fill="#1E2017"/>
<path id="under-front-darkness-3" d="M147 148.121L160.5 147.621V150.301C160.5 150.778 160.164 151.188 159.696 151.282L158 151.621L156 152.121H154.5L152.5 151.621L151 151.121L148.786 150.383C148.283 150.215 147.867 149.854 147.63 149.38L147 148.121Z" fill="#1E2017"/>
<path id="under-front-panel-3" d="M150.213 147.184C150.098 146.611 150.496 146.063 151.076 145.994L157.489 145.24C158.045 145.175 158.546 145.577 158.601 146.134L158.903 149.15C158.957 149.69 158.57 150.175 158.032 150.242L151.922 151.006C151.402 151.071 150.92 150.723 150.818 150.21L150.213 147.184Z" fill="#3F4039"/>
<path id="under-front-panel-1" d="M127.5 142.309C127.5 141.921 127.799 141.597 128.186 141.567L172 138.121L172 138.238C172 138.742 171.624 139.168 171.124 139.23L168 139.621L128.309 143.051C127.874 143.089 127.5 142.746 127.5 142.309Z" fill="#3F4039"/>
<path id="under-front-panel-2" d="M149.641 143.904C149.33 143.281 149.734 142.539 150.425 142.463L171.5 140.121L171.619 140.477C171.817 141.071 171.426 141.699 170.805 141.784L150.709 144.524C150.285 144.582 149.871 144.364 149.68 143.981L149.641 143.904Z" fill="#3F4039"/>
<path id="Rectangle 1" d="M152.113 148.135C152.051 147.578 152.458 147.079 153.016 147.029L156.524 146.71C157.066 146.66 157.548 147.054 157.608 147.595L157.887 150.107C157.949 150.664 157.542 151.163 156.984 151.213L153.476 151.532C152.934 151.582 152.452 151.188 152.392 150.647L152.113 148.135Z" fill="#1E2017"/>
</g>
<g id="side" filter="url(#filter2_d_4_2)">
<path id="side-wall" d="M85.8829 110.135L85.746 110.168L85.6464 110.267L84.6464 111.267L84.5163 111.398L84.5016 111.581L83.5016 124.081L83.496 124.151L83.5097 124.219L84.9841 131.591C85.3419 133.38 86.7443 134.776 88.5349 135.125L126.904 142.612L127.493 142.727L127.5 142.127L128 100.627L128.008 99.9843L127.383 100.135L85.8829 110.135Z" fill="#A09C8E" stroke="black"/>
<path id="side-stripe-1" d="M85 130.121L115.664 131.979C116.57 132.034 116.987 133.134 116.345 133.776C116.126 133.995 115.822 134.106 115.514 134.081L85.5 131.621L85 130.121Z" fill="#727168"/>
<path id="side-stripe-2" d="M84 125.621L116.777 126.007C117.354 126.013 117.734 126.61 117.496 127.135C117.363 127.429 117.066 127.615 116.744 127.605L84.5 126.621L84 125.621Z" fill="#727168"/>
<path id="side-window-3" d="M98.9145 110.564C98.1372 110.661 97.5399 111.299 97.4939 112.081L96.9384 121.526C96.8835 122.459 97.6256 123.246 98.5606 123.246H101.887C102.75 123.246 103.462 122.572 103.51 121.711L103.791 116.656L104.058 111.852C104.114 110.84 103.24 110.024 102.234 110.149L98.9145 110.564Z" fill="#92AFB1" stroke="black" stroke-width="1.25"/>
<path id="side-window-2" d="M118.624 115.163L118.624 115.16L119.04 108.504C119.108 107.416 118.107 106.571 117.046 106.821L110.571 108.345C109.88 108.507 109.375 109.099 109.323 109.806L108.456 121.501C108.386 122.443 109.132 123.246 110.077 123.246H116.564C117.42 123.246 118.129 122.583 118.186 121.729L118.624 115.163Z" fill="#92AFB1" stroke="black" stroke-width="1.25"/>
<path id="side-window-1" d="M90.6737 112.887C89.9034 112.996 89.3179 113.635 89.2773 114.412L88.9309 121.036C88.8823 121.966 89.6229 122.746 90.5537 122.746H92.1037C92.97 122.746 93.684 122.066 93.7267 121.201L93.902 117.652L94.0646 114.36C94.1149 113.341 93.2253 112.528 92.2153 112.67L90.6737 112.887Z" fill="#92AFB1" stroke="black" stroke-width="1.25"/>
<path id="side-top" d="M142.239 92.0599L141.86 91.1408L89.3782 106.408C87.6392 106.914 86.1901 108.123 85.3801 109.743L85.0528 110.397L84.5666 111.37L85.6213 111.106L125.621 101.106L125.683 101.091L125.739 101.06L142.239 92.0599Z" fill="#A09C8E" stroke="black"/>
</g>
<g id="Front" filter="url(#filter3_d_4_2)">
<path id="front-head" d="M136.184 93.1723L136.166 93.1781L136.149 93.1846L131.707 94.85C127.961 96.2547 125.412 99.7573 125.228 103.754L124.501 119.575L124.5 119.598V119.621V125.621V130.621V130.666L124.504 130.711L125.416 140.739C125.514 141.821 126.457 142.626 127.541 142.554L149.067 141.119L149.087 141.117L149.108 141.115L171.12 138.722C172.213 138.604 173.006 137.624 172.893 136.53L170.995 118.019L170.994 118.009L170.992 117.998L169.428 105.326C168.806 100.288 165.505 95.9808 160.802 94.0704L159.876 93.6945L159.821 93.6719L159.763 93.6562L154.263 92.1562L154.214 92.1429L154.164 92.1345L151.899 91.757C151.356 91.6664 150.806 91.6209 150.255 91.6209H148H142.891C142.233 91.6209 141.576 91.686 140.93 91.8151L139.304 92.1404L139.243 92.1526L139.184 92.1723L136.184 93.1723Z" fill="#A09C8E" stroke="black" stroke-width="2"/>
<path id="front-headlight-3" d="M166 134.121C167.738 134.121 169 132.465 169 130.621C169 128.777 167.738 127.121 166 127.121C164.262 127.121 163 128.777 163 130.621C163 132.465 164.262 134.121 166 134.121Z" fill="#F5BD66" stroke="black"/>
<path id="front-headlight-2" d="M140 136.121C141.738 136.121 143 134.465 143 132.621C143 130.777 141.738 129.121 140 129.121C138.262 129.121 137 130.777 137 132.621C137 134.465 138.262 136.121 140 136.121Z" fill="#F5BD66" stroke="black"/>
<path id="front-headlight-1" d="M132.5 135.121C133.881 135.121 135 134.002 135 132.621C135 131.24 133.881 130.121 132.5 130.121C131.119 130.121 130 131.24 130 132.621C130 134.002 131.119 135.121 132.5 135.121Z" fill="#F5BD66" stroke="black"/>
<path id="front-paint-1" d="M127.71 99.2015C127.902 98.817 128.155 98.466 128.459 98.162L130 96.6209L132.5 95.6209L137 93.6209L140 92.6209H141.5H144H147.5H151L154.5 93.1209L158 94.1209L160 94.6209L162 95.6209L164 97.1209L166.135 98.6463C167.008 99.2698 167.594 100.218 167.762 101.277L169 109.121L170.5 121.121C170.5 121.738 170.165 122.307 169.626 122.607L166 124.621L162.5 126.121L158 126.621L146 127.121L139 126.121L132 124.621L126.456 122.915C125.888 122.74 125.5 122.215 125.5 121.621V120.621L126 104.621V104.121L126.5 101.621L127.71 99.2015Z" fill="#45423C"/>
<path id="front-door-1" d="M145.752 140.177L145.809 140.941L146.572 140.867L159.104 139.655C161.156 139.456 162.664 137.637 162.477 135.583L159.495 102.781C159.319 100.85 157.7 99.3709 155.76 99.3709L145.656 99.3709C144.056 99.3709 142.794 100.731 142.913 102.327L145.752 140.177Z" fill="#A09C8E" stroke="black" stroke-width="1.5"/>
<path id="front-window-1" d="M154.111 102.496L148.674 102.496C147.138 102.496 145.93 103.809 146.058 105.339L147.216 119.234C147.334 120.651 148.558 121.716 149.977 121.637L155.035 121.356C156.484 121.276 157.593 120.034 157.51 118.585L156.732 104.971C156.652 103.582 155.503 102.496 154.111 102.496Z" fill="#92AFB1" stroke="black" stroke-width="1.25"/>
<g id="front-window-2">
<mask id="path-24-outside-1_4_2" maskUnits="userSpaceOnUse" x="158.085" y="100.477" width="11.5334" height="21.6853" fill="black">
<rect fill="white" x="158.085" y="100.477" width="11.5334" height="21.6853"/>
<path d="M167.141 117.26L165.234 105.108C165.095 104.228 164.391 103.545 163.506 103.434L161.113 103.135C161.043 103.126 160.982 103.082 160.952 103.017C160.856 102.811 160.547 102.889 160.559 103.115L161.475 119.667C161.489 119.922 161.699 120.121 161.954 120.121C161.985 120.121 162.015 120.118 162.045 120.112L164.815 119.579C164.938 119.555 165.063 119.543 165.189 119.543C166.403 119.543 167.33 118.459 167.141 117.26Z"/>
</mask>
<path d="M167.141 117.26L165.234 105.108C165.095 104.228 164.391 103.545 163.506 103.434L161.113 103.135C161.043 103.126 160.982 103.082 160.952 103.017C160.856 102.811 160.547 102.889 160.559 103.115L161.475 119.667C161.489 119.922 161.699 120.121 161.954 120.121C161.985 120.121 162.015 120.118 162.045 120.112L164.815 119.579C164.938 119.555 165.063 119.543 165.189 119.543C166.403 119.543 167.33 118.459 167.141 117.26Z" fill="#92AFB1"/>
<path d="M165.234 105.108L163.999 105.302L165.234 105.108ZM167.141 117.26L165.907 117.454L167.141 117.26ZM161.475 119.667L162.723 119.598L161.475 119.667ZM160.559 103.115L161.807 103.046L160.559 103.115ZM161.113 103.135L161.268 101.895L161.268 101.895L161.113 103.135ZM163.506 103.434L163.351 104.675L163.351 104.675L163.506 103.434ZM164.815 119.579L165.051 120.806L165.051 120.806L164.815 119.579ZM162.045 120.112L162.281 121.34L162.281 121.34L162.045 120.112ZM161.954 120.121L161.954 121.371L161.954 121.371L161.954 120.121ZM160.952 103.017L162.086 102.491L162.086 102.491L160.952 103.017ZM165.189 119.543L165.189 120.793L165.189 120.793L165.189 119.543ZM163.999 105.302L165.907 117.454L168.376 117.066L166.468 104.915L163.999 105.302ZM162.723 119.598L161.807 103.046L159.311 103.184L160.227 119.736L162.723 119.598ZM160.958 104.375L163.351 104.675L163.661 102.194L161.268 101.895L160.958 104.375ZM164.578 118.351L161.809 118.885L162.281 121.34L165.051 120.806L164.578 118.351ZM161.809 118.885C161.857 118.876 161.905 118.871 161.954 118.871L161.954 121.371C162.064 121.371 162.174 121.36 162.281 121.34L161.809 118.885ZM159.818 103.543C160.029 103.999 160.46 104.313 160.958 104.375L161.268 101.895C161.625 101.939 161.934 102.165 162.086 102.491L159.818 103.543ZM165.189 118.293C164.984 118.293 164.779 118.313 164.578 118.351L165.051 120.806C165.096 120.798 165.142 120.793 165.189 120.793L165.189 118.293ZM160.227 119.736C160.278 120.653 161.036 121.371 161.954 121.371L161.954 118.871C162.363 118.871 162.7 119.19 162.723 119.598L160.227 119.736ZM165.907 117.454C165.976 117.895 165.635 118.293 165.189 118.293L165.189 120.793C167.17 120.793 168.684 119.024 168.376 117.066L165.907 117.454ZM166.468 104.915C166.244 103.483 165.099 102.374 163.661 102.194L163.351 104.675C163.683 104.716 163.947 104.972 163.999 105.302L166.468 104.915ZM161.807 103.046C161.871 104.195 160.302 104.587 159.818 103.543L162.086 102.491C161.411 101.036 159.223 101.583 159.311 103.184L161.807 103.046Z" fill="black" mask="url(#path-24-outside-1_4_2)"/>
</g>
<path id="front-icon" d="M135 118.371C139.129 118.371 141.75 114.764 141.75 110.621C141.75 108.541 141.103 106.503 139.945 104.969C138.78 103.427 137.073 102.371 135 102.371C132.521 102.371 130.674 103.384 129.466 104.966C128.279 106.522 127.75 108.571 127.75 110.621C127.75 114.848 130.945 118.371 135 118.371Z" fill="#4DAD8C" stroke="black" stroke-width="1.5"/>
<path id="front-six" d="M134.557 114.74C134.108 114.737 133.675 114.662 133.257 114.514C132.842 114.367 132.47 114.127 132.141 113.794C131.811 113.462 131.55 113.022 131.357 112.473C131.166 111.925 131.071 111.252 131.071 110.453C131.074 109.72 131.158 109.066 131.322 108.489C131.49 107.909 131.729 107.418 132.038 107.014C132.351 106.611 132.724 106.304 133.159 106.094C133.594 105.881 134.081 105.774 134.621 105.774C135.203 105.774 135.717 105.888 136.163 106.115C136.609 106.34 136.967 106.645 137.237 107.031C137.51 107.418 137.675 107.851 137.732 108.331H135.912C135.841 108.027 135.692 107.789 135.464 107.615C135.237 107.442 134.956 107.355 134.621 107.355C134.053 107.355 133.621 107.602 133.325 108.097C133.033 108.591 132.884 109.263 132.878 110.112H132.938C133.068 109.854 133.244 109.634 133.466 109.452C133.69 109.267 133.945 109.127 134.229 109.03C134.516 108.931 134.818 108.881 135.136 108.881C135.653 108.881 136.114 109.003 136.517 109.247C136.92 109.489 137.239 109.821 137.472 110.245C137.705 110.668 137.821 111.152 137.821 111.698C137.821 112.289 137.683 112.814 137.408 113.274C137.135 113.735 136.753 114.095 136.261 114.357C135.773 114.615 135.205 114.743 134.557 114.74ZM134.548 113.291C134.832 113.291 135.087 113.223 135.311 113.087C135.536 112.95 135.712 112.766 135.839 112.533C135.967 112.3 136.031 112.039 136.031 111.749C136.031 111.459 135.967 111.199 135.839 110.969C135.714 110.739 135.541 110.556 135.32 110.419C135.098 110.283 134.845 110.215 134.561 110.215C134.348 110.215 134.151 110.254 133.969 110.334C133.79 110.414 133.632 110.524 133.496 110.666C133.362 110.808 133.257 110.973 133.18 111.161C133.104 111.345 133.065 111.543 133.065 111.753C133.065 112.034 133.129 112.291 133.257 112.524C133.388 112.757 133.564 112.943 133.786 113.083C134.01 113.222 134.264 113.291 134.548 113.291Z" fill="white"/>
</g>
<rect id="Rectangle 2" x="60" y="90" width="125" height="63" rx="31.5" fill="#271C2A"/>
<path id="Hacks" d="M100.824 54.4H110.328V88H100.824V54.4ZM87.864 88H78.36V54.4H87.864V88ZM101.496 74.896H87.192V67.024H101.496V74.896ZM127.544 88.432C125.432 88.432 123.528 88.016 121.832 87.184C120.168 86.352 118.856 85.056 117.896 83.296C116.968 81.504 116.504 79.248 116.504 76.528V61.984H125.624V75.04C125.624 77.056 125.992 78.496 126.728 79.36C127.496 80.224 128.568 80.656 129.944 80.656C130.84 80.656 131.656 80.448 132.392 80.032C133.128 79.616 133.72 78.96 134.168 78.064C134.616 77.136 134.84 75.952 134.84 74.512V61.984H143.96V88H135.272V80.656L136.952 82.72C136.056 84.64 134.76 86.08 133.064 87.04C131.368 87.968 129.528 88.432 127.544 88.432ZM166.778 61.552C168.794 61.552 170.618 61.968 172.25 62.8C173.882 63.6 175.162 64.848 176.09 66.544C177.05 68.24 177.53 70.432 177.53 73.12V88H168.41V74.608C168.41 72.752 168.026 71.408 167.258 70.576C166.522 69.712 165.482 69.28 164.138 69.28C163.178 69.28 162.298 69.504 161.498 69.952C160.698 70.368 160.074 71.024 159.626 71.92C159.178 72.816 158.954 73.984 158.954 75.424V88H149.834V61.984H158.522V69.376L156.842 67.216C157.834 65.328 159.194 63.92 160.922 62.992C162.65 62.032 164.602 61.552 166.778 61.552ZM194.872 88.432C191.544 88.432 188.952 87.616 187.096 85.984C185.24 84.32 184.312 81.824 184.312 78.496V56.176H193.432V78.4C193.432 79.328 193.688 80.064 194.2 80.608C194.712 81.12 195.368 81.376 196.168 81.376C197.256 81.376 198.184 81.104 198.952 80.56L201.208 86.944C200.44 87.456 199.496 87.824 198.376 88.048C197.256 88.304 196.088 88.432 194.872 88.432ZM180.52 69.76V62.944H199.384V69.76H180.52ZM217.607 88.432C214.535 88.432 211.847 87.856 209.543 86.704C207.271 85.52 205.495 83.92 204.215 81.904C202.967 79.856 202.343 77.536 202.343 74.944C202.343 72.352 202.951 70.048 204.167 68.032C205.415 65.984 207.127 64.4 209.303 63.28C211.479 62.128 213.927 61.552 216.647 61.552C219.207 61.552 221.543 62.08 223.655 63.136C225.767 64.16 227.447 65.68 228.695 67.696C229.943 69.712 230.567 72.16 230.567 75.04C230.567 75.36 230.551 75.728 230.519 76.144C230.487 76.56 230.455 76.944 230.423 77.296H209.831V72.496H225.575L222.119 73.84C222.151 72.656 221.927 71.632 221.447 70.768C220.999 69.904 220.359 69.232 219.527 68.752C218.727 68.272 217.783 68.032 216.695 68.032C215.607 68.032 214.647 68.272 213.815 68.752C213.015 69.232 212.391 69.92 211.943 70.816C211.495 71.68 211.271 72.704 211.271 73.888V75.28C211.271 76.56 211.527 77.664 212.039 78.592C212.583 79.52 213.351 80.24 214.343 80.752C215.335 81.232 216.519 81.472 217.895 81.472C219.175 81.472 220.263 81.296 221.159 80.944C222.087 80.56 222.999 79.984 223.895 79.216L228.695 84.208C227.447 85.584 225.911 86.64 224.087 87.376C222.263 88.08 220.103 88.432 217.607 88.432ZM234.772 88V61.984H243.46V69.568L242.164 67.408C242.932 65.456 244.18 64 245.908 63.04C247.636 62.048 249.732 61.552 252.196 61.552V69.76C251.78 69.696 251.412 69.664 251.092 69.664C250.804 69.632 250.484 69.616 250.132 69.616C248.276 69.616 246.772 70.128 245.62 71.152C244.468 72.144 243.892 73.776 243.892 76.048V88H234.772Z" fill="white"/>
<path id="Hacks_2" d="M76.32 135.12C76.16 135.12 76 135.067 75.84 134.96C75.68 134.853 75.6 134.707 75.6 134.52C75.6 134.067 75.8533 133.773 76.36 133.64C77.2667 133.427 77.8933 133.16 78.24 132.84C78.5867 132.52 78.76 131.947 78.76 131.12V112.96C78.76 112.107 78.5867 111.507 78.24 111.16C77.92 110.813 77.2933 110.52 76.36 110.28C75.8533 110.147 75.6 109.853 75.6 109.4C75.6 109.213 75.68 109.067 75.84 108.96C76 108.853 76.16 108.8 76.32 108.8C76.9067 108.8 77.5467 108.813 78.24 108.84C78.9333 108.867 79.6133 108.907 80.28 108.96C80.9467 108.987 81.5467 109 82.08 109C82.6133 109 83.2533 108.987 84 108.96C84.7467 108.933 85.5067 108.907 86.28 108.88C87.0533 108.853 87.72 108.84 88.28 108.84C88.7067 108.84 88.92 109.04 88.92 109.44C88.92 109.707 88.8533 109.893 88.72 110C88.5867 110.107 88.4 110.2 88.16 110.28C87.0667 110.6 86.36 110.933 86.04 111.28C85.72 111.627 85.56 112.2 85.56 113V120.08C85.56 120.293 85.6133 120.453 85.72 120.56C85.8533 120.64 86.0133 120.68 86.2 120.68H95.84C96.2133 120.68 96.4 120.48 96.4 120.08V113C96.4 112.2 96.24 111.627 95.92 111.28C95.6 110.933 94.8933 110.6 93.8 110.28C93.56 110.2 93.3733 110.107 93.24 110C93.1067 109.893 93.04 109.707 93.04 109.44C93.04 109.04 93.2533 108.84 93.68 108.84C94.24 108.84 94.9067 108.853 95.68 108.88C96.4533 108.907 97.2133 108.933 97.96 108.96C98.7333 108.987 99.3733 109 99.88 109C100.413 109 101.013 108.987 101.68 108.96C102.347 108.907 103.027 108.867 103.72 108.84C104.413 108.813 105.053 108.8 105.64 108.8C105.8 108.8 105.96 108.853 106.12 108.96C106.28 109.067 106.36 109.213 106.36 109.4C106.36 109.853 106.107 110.147 105.6 110.28C104.667 110.52 104.027 110.813 103.68 111.16C103.36 111.507 103.2 112.107 103.2 112.96V131.12C103.2 131.947 103.373 132.52 103.72 132.84C104.067 133.16 104.693 133.427 105.6 133.64C106.107 133.773 106.36 134.067 106.36 134.52C106.36 134.707 106.28 134.853 106.12 134.96C105.96 135.067 105.8 135.12 105.64 135.12C105.133 135.12 104.533 135.093 103.84 135.04C103.147 135.013 102.44 134.987 101.72 134.96C101.027 134.933 100.413 134.92 99.88 134.92C99.3733 134.92 98.7333 134.933 97.96 134.96C97.2133 134.987 96.4533 135.013 95.68 135.04C94.9067 135.067 94.24 135.08 93.68 135.08C93.4933 135.08 93.3333 135.027 93.2 134.92C93.0933 134.813 93.04 134.667 93.04 134.48C93.04 134.213 93.1067 134.027 93.24 133.92C93.3733 133.813 93.56 133.72 93.8 133.64C94.84 133.347 95.5333 133.04 95.88 132.72C96.2267 132.373 96.4 131.827 96.4 131.08V123.64C96.4 123.427 96.36 123.267 96.28 123.16C96.2 123.027 96.0533 122.96 95.84 122.96H86.2C85.7733 122.96 85.56 123.187 85.56 123.64V131.08C85.56 131.827 85.7333 132.373 86.08 132.72C86.4267 133.04 87.12 133.347 88.16 133.64C88.4 133.72 88.5867 133.813 88.72 133.92C88.8533 134.027 88.92 134.213 88.92 134.48C88.92 134.667 88.8667 134.813 88.76 134.92C88.6533 135.027 88.4933 135.08 88.28 135.08C87.72 135.08 87.0533 135.067 86.28 135.04C85.5067 135.013 84.7467 134.987 84 134.96C83.2533 134.933 82.6133 134.92 82.08 134.92C81.5467 134.92 80.92 134.933 80.2 134.96C79.5067 134.987 78.8133 135.013 78.12 135.04C77.4267 135.093 76.8267 135.12 76.32 135.12ZM112.233 135.56C111.46 135.56 110.753 135.387 110.113 135.04C109.473 134.72 108.966 134.28 108.593 133.72C108.22 133.133 108.033 132.493 108.033 131.8C108.033 130.867 108.326 130.08 108.913 129.44C109.526 128.8 110.406 128.227 111.553 127.72L114.993 126.2C115.526 125.96 115.86 125.747 115.993 125.56C116.126 125.347 116.193 124.987 116.193 124.48L116.233 122.28C116.26 121.507 116.14 120.92 115.873 120.52C115.606 120.093 115.193 119.88 114.633 119.88C114.313 119.88 113.98 119.96 113.633 120.12C113.286 120.253 113.033 120.413 112.873 120.6C112.793 120.707 112.74 120.827 112.713 120.96C112.686 121.093 112.673 121.227 112.673 121.36C112.673 121.52 112.686 121.733 112.713 122C112.74 122.24 112.753 122.44 112.753 122.6C112.753 122.787 112.526 123.013 112.073 123.28C111.62 123.52 111.1 123.747 110.513 123.96C109.926 124.147 109.42 124.24 108.993 124.24C108.78 124.24 108.593 124.16 108.433 124C108.3 123.813 108.233 123.587 108.233 123.32C108.233 122.893 108.38 122.48 108.673 122.08C108.966 121.68 109.46 121.2 110.153 120.64C110.873 120.053 111.66 119.533 112.513 119.08C113.366 118.627 114.206 118.267 115.033 118C115.86 117.707 116.566 117.56 117.153 117.56C118.673 117.56 119.886 118.053 120.793 119.04C121.7 120 122.126 121.293 122.073 122.92L121.873 130.68C121.846 131.293 121.94 131.827 122.153 132.28C122.393 132.707 122.686 132.92 123.033 132.92C123.513 132.92 123.94 132.747 124.313 132.4C124.393 132.32 124.473 132.28 124.553 132.28C124.686 132.28 124.793 132.333 124.873 132.44C124.98 132.52 125.033 132.627 125.033 132.76C125.033 133.08 124.766 133.507 124.233 134.04C123.726 134.547 123.18 134.92 122.593 135.16C122.006 135.427 121.393 135.56 120.753 135.56C119.206 135.56 117.913 134.787 116.873 133.24H116.793C115.913 134.067 115.126 134.653 114.433 135C113.74 135.373 113.006 135.56 112.233 135.56ZM114.713 132.8C114.953 132.8 115.153 132.76 115.313 132.68C115.473 132.6 115.62 132.467 115.753 132.28C115.833 132.173 115.886 132.04 115.913 131.88C115.966 131.72 115.993 131.547 115.993 131.36L116.113 128.28C116.113 128.04 116.073 127.893 115.993 127.84C115.913 127.76 115.82 127.72 115.713 127.72C115.66 127.72 115.593 127.733 115.513 127.76C115.46 127.76 115.393 127.787 115.313 127.84C114.673 128.187 114.18 128.547 113.833 128.92C113.513 129.267 113.353 129.907 113.353 130.84C113.353 131.613 113.5 132.133 113.793 132.4C114.113 132.667 114.42 132.8 114.713 132.8ZM133.284 135.56C131.844 135.56 130.55 135.173 129.404 134.4C128.257 133.627 127.35 132.587 126.684 131.28C126.017 129.947 125.684 128.453 125.684 126.8C125.684 125.067 126.084 123.507 126.884 122.12C127.71 120.733 128.804 119.627 130.164 118.8C131.524 117.973 133.044 117.56 134.724 117.56C137.017 117.56 138.897 118.333 140.364 119.88C140.577 120.147 140.684 120.387 140.684 120.6C140.684 120.76 140.564 121 140.324 121.32C140.084 121.613 139.804 121.893 139.484 122.16C139.19 122.4 138.937 122.52 138.724 122.52C138.457 122.52 138.204 122.44 137.964 122.28C137.724 122.12 137.497 121.947 137.284 121.76C136.564 121.147 135.844 120.667 135.124 120.32C134.43 119.947 133.817 119.76 133.284 119.76C132.35 119.76 131.657 120.147 131.204 120.92C130.75 121.667 130.524 122.987 130.524 124.88C130.524 126.187 130.71 127.307 131.084 128.24C131.457 129.173 132.017 129.893 132.764 130.4C133.51 130.88 134.43 131.12 135.524 131.12C136.324 131.12 137.017 130.987 137.604 130.72C138.217 130.453 138.844 130.08 139.484 129.6C139.617 129.493 139.737 129.4 139.844 129.32C139.95 129.24 140.07 129.2 140.204 129.2C140.524 129.2 140.684 129.413 140.684 129.84C140.684 129.947 140.67 130.093 140.644 130.28C140.617 130.467 140.55 130.68 140.444 130.92C140.23 131.453 139.777 132.093 139.084 132.84C138.39 133.56 137.55 134.2 136.564 134.76C135.577 135.293 134.484 135.56 133.284 135.56ZM142.338 135.12C141.804 135.12 141.538 134.92 141.538 134.52C141.538 134.307 141.618 134.147 141.778 134.04C141.938 133.907 142.164 133.787 142.458 133.68C142.858 133.547 143.204 133.413 143.498 133.28C143.791 133.12 143.938 132.747 143.938 132.16V113.16C143.938 112.44 143.844 111.813 143.658 111.28C143.498 110.747 143.084 110.413 142.418 110.28C142.124 110.227 141.978 110.013 141.978 109.64C141.978 109.293 142.111 109.093 142.378 109.04C143.044 108.907 143.804 108.707 144.658 108.44C145.511 108.147 146.324 107.853 147.098 107.56C147.898 107.267 148.498 107.053 148.898 106.92C149.138 106.84 149.324 106.8 149.458 106.8C149.644 106.8 149.764 106.853 149.818 106.96C149.871 107.067 149.898 107.187 149.898 107.32C149.898 107.507 149.871 107.827 149.818 108.28C149.764 108.707 149.724 109.107 149.698 109.48L149.738 124.84C149.738 125.187 149.858 125.36 150.098 125.36C150.178 125.36 150.258 125.333 150.338 125.28C150.444 125.227 150.524 125.187 150.578 125.16C151.538 124.307 152.404 123.44 153.178 122.56C153.978 121.653 154.511 120.987 154.778 120.56C154.884 120.4 154.964 120.267 155.018 120.16C155.098 120.027 155.138 119.92 155.138 119.84C155.138 119.707 155.031 119.573 154.818 119.44C154.604 119.28 154.271 119.173 153.818 119.12C153.498 119.067 153.338 118.907 153.338 118.64C153.338 118.4 153.431 118.253 153.618 118.2C153.831 118.12 154.031 118.08 154.218 118.08H156.178C156.658 118.08 157.311 118.067 158.138 118.04C158.991 117.987 159.818 117.933 160.618 117.88C161.444 117.8 162.031 117.747 162.378 117.72C162.671 117.72 162.818 117.88 162.818 118.2C162.818 118.413 162.738 118.6 162.578 118.76C162.418 118.893 162.191 118.987 161.898 119.04C161.444 119.147 160.898 119.333 160.258 119.6C159.618 119.867 158.951 120.2 158.258 120.6C157.751 120.867 157.244 121.173 156.738 121.52C156.231 121.84 155.751 122.173 155.298 122.52C154.871 122.867 154.484 123.213 154.138 123.56C154.004 123.693 153.938 123.84 153.938 124C153.938 124.107 153.964 124.2 154.018 124.28C154.098 124.333 154.164 124.4 154.218 124.48C154.858 125.307 155.444 126.12 155.978 126.92C156.511 127.693 157.058 128.453 157.618 129.2C158.178 129.947 158.804 130.72 159.498 131.52C159.951 132.027 160.498 132.493 161.137 132.92C161.804 133.32 162.351 133.6 162.778 133.76C162.991 133.84 163.218 133.933 163.458 134.04C163.724 134.147 163.858 134.307 163.858 134.52C163.858 134.92 163.564 135.12 162.977 135.12C161.244 135.12 159.578 135.093 157.978 135.04C156.404 135.013 154.951 135 153.618 135C153.084 135 152.818 134.8 152.818 134.4C152.818 134.187 152.898 134.027 153.058 133.92C153.218 133.787 153.444 133.667 153.738 133.56C153.951 133.48 154.084 133.4 154.138 133.32C154.218 133.213 154.271 133.107 154.298 133C154.298 132.867 154.244 132.733 154.138 132.6C154.058 132.44 153.938 132.253 153.778 132.04L150.138 126.72C150.084 126.667 150.031 126.64 149.978 126.64C149.818 126.693 149.738 126.8 149.738 126.96C149.738 127.36 149.738 127.773 149.738 128.2C149.738 128.6 149.738 129 149.738 129.4C149.738 129.827 149.738 130.293 149.738 130.8C149.738 131.28 149.738 131.747 149.738 132.2C149.738 132.627 149.818 132.947 149.978 133.16C150.164 133.347 150.471 133.507 150.898 133.64C151.111 133.72 151.298 133.827 151.458 133.96C151.618 134.093 151.698 134.267 151.698 134.48C151.698 134.667 151.631 134.827 151.497 134.96C151.391 135.067 151.231 135.12 151.018 135.12C150.484 135.12 149.978 135.093 149.498 135.04C149.018 135.013 148.551 134.987 148.098 134.96C147.644 134.933 147.178 134.92 146.698 134.92C146.244 134.92 145.778 134.933 145.298 134.96C144.844 134.987 144.364 135.013 143.858 135.04C143.378 135.093 142.871 135.12 142.338 135.12ZM170.277 135.56C169.37 135.56 168.49 135.453 167.637 135.24C166.81 135.053 166.037 134.72 165.317 134.24C165.05 133.813 164.863 133.16 164.757 132.28C164.65 131.373 164.61 130.4 164.637 129.36C164.637 129.013 164.917 128.84 165.477 128.84C165.717 128.84 165.917 128.92 166.077 129.08C166.263 129.24 166.383 129.387 166.437 129.52C166.97 130.587 167.557 131.547 168.197 132.4C168.837 133.227 169.65 133.64 170.637 133.64C171.33 133.64 171.837 133.427 172.157 133C172.503 132.573 172.677 132.107 172.677 131.6C172.677 130.907 172.397 130.333 171.837 129.88C171.277 129.427 170.663 129.04 169.997 128.72C169.25 128.347 168.517 127.92 167.797 127.44C167.077 126.933 166.477 126.307 165.997 125.56C165.517 124.813 165.277 123.907 165.277 122.84C165.277 121.747 165.57 120.813 166.157 120.04C166.77 119.24 167.583 118.627 168.597 118.2C169.61 117.747 170.717 117.52 171.917 117.52C172.823 117.52 173.663 117.627 174.437 117.84C175.237 118.027 175.783 118.213 176.077 118.4C176.29 118.667 176.45 119.187 176.557 119.96C176.69 120.707 176.757 121.56 176.757 122.52C176.757 122.813 176.49 122.96 175.957 122.96C175.77 122.96 175.57 122.893 175.357 122.76C175.143 122.6 175.01 122.453 174.957 122.32C174.61 121.253 174.157 120.453 173.597 119.92C173.063 119.387 172.477 119.12 171.837 119.12C171.25 119.12 170.717 119.307 170.237 119.68C169.783 120.053 169.557 120.547 169.557 121.16C169.557 121.693 169.823 122.187 170.357 122.64C170.917 123.067 171.557 123.467 172.277 123.84C174.037 124.747 175.29 125.627 176.037 126.48C176.783 127.333 177.157 128.48 177.157 129.92C177.157 131.707 176.583 133.093 175.437 134.08C174.29 135.067 172.57 135.56 170.277 135.56Z" fill="white"/>
</g>
<defs>
<filter id="filter0_d_4_2" x="84.4447" y="133.121" width="52.6343" height="25.5" filterUnits="userSpaceOnUse" color-interpolation-filters="sRGB">
<feFlood flood-opacity="0" result="BackgroundImageFix"/>
<feColorMatrix in="SourceAlpha" type="matrix" values="0 0 0 0 0 0 0 0 0 0 0 0 0 0 0 0 0 0 127 0" result="hardAlpha"/>
<feOffset dy="4"/>
<feGaussianBlur stdDeviation="2"/>
<feComposite in2="hardAlpha" operator="out"/>
<feColorMatrix type="matrix" values="0 0 0 0 0 0 0 0 0 0 0 0 0 0 0 0 0 0 0.25 0"/>
<feBlend mode="normal" in2="BackgroundImageFix" result="effect1_dropShadow_4_2"/>
<feBlend mode="normal" in="SourceGraphic" in2="effect1_dropShadow_4_2" result="shape"/>
</filter>
<filter id="filter1_d_4_2" x="121.5" y="138.121" width="55.7483" height="22" filterUnits="userSpaceOnUse" color-interpolation-filters="sRGB">
<feFlood flood-opacity="0" result="BackgroundImageFix"/>
<feColorMatrix in="SourceAlpha" type="matrix" values="0 0 0 0 0 0 0 0 0 0 0 0 0 0 0 0 0 0 127 0" result="hardAlpha"/>
<feOffset dy="4"/>
<feGaussianBlur stdDeviation="2"/>
<feComposite in2="hardAlpha" operator="out"/>
<feColorMatrix type="matrix" values="0 0 0 0 0 0 0 0 0 0 0 0 0 0 0 0 0 0 0.25 0"/>
<feBlend mode="normal" in2="BackgroundImageFix" result="effect1_dropShadow_4_2"/>
<feBlend mode="normal" in="SourceGraphic" in2="effect1_dropShadow_4_2" result="shape"/>
</filter>
<filter id="filter2_d_4_2" x="78.9921" y="90.6608" width="67.4868" height="60.6714" filterUnits="userSpaceOnUse" color-interpolation-filters="sRGB">
<feFlood flood-opacity="0" result="BackgroundImageFix"/>
<feColorMatrix in="SourceAlpha" type="matrix" values="0 0 0 0 0 0 0 0 0 0 0 0 0 0 0 0 0 0 127 0" result="hardAlpha"/>
<feOffset dy="4"/>
<feGaussianBlur stdDeviation="2"/>
<feComposite in2="hardAlpha" operator="out"/>
<feColorMatrix type="matrix" values="0 0 0 0 0 0 0 0 0 0 0 0 0 0 0 0 0 0 0.25 0"/>
<feBlend mode="normal" in2="BackgroundImageFix" result="effect1_dropShadow_4_2"/>
<feBlend mode="normal" in="SourceGraphic" in2="effect1_dropShadow_4_2" result="shape"/>
</filter>
<filter id="filter3_d_4_2" x="119.5" y="90.6209" width="58.4041" height="60.9374" filterUnits="userSpaceOnUse" color-interpolation-filters="sRGB">
<feFlood flood-opacity="0" result="BackgroundImageFix"/>
<feColorMatrix in="SourceAlpha" type="matrix" values="0 0 0 0 0 0 0 0 0 0 0 0 0 0 0 0 0 0 127 0" result="hardAlpha"/>
<feOffset dy="4"/>
<feGaussianBlur stdDeviation="2"/>
<feComposite in2="hardAlpha" operator="out"/>
<feColorMatrix type="matrix" values="0 0 0 0 0 0 0 0 0 0 0 0 0 0 0 0 0 0 0.25 0"/>
<feBlend mode="normal" in2="BackgroundImageFix" result="effect1_dropShadow_4_2"/>
<feBlend mode="normal" in="SourceGraphic" in2="effect1_dropShadow_4_2" result="shape"/>
</filter>
</defs>
</svg>
