<svg width="224" height="224" viewBox="0 0 224 224" fill="none" xmlns="http://www.w3.org/2000/svg">
<g id="train-logo">
<g id="train">
<g id="under-side" filter="url(#filter0_d_4_2)">
<path id="under-side-darkness-3" d="M127 141.121L171.079 151.702L170.5 158.621L130.221 148.441C127.402 147.728 125.784 144.77 126.703 142.012L127 141.121Z" fill="#1E2017"/>
</g>
<g id="under-front" filter="url(#filter1_d_4_2)">
<path id="under-front-darkness-1" d="M163.5 149.121L211.248 146.574L211.096 149.065C211.039 149.98 210.369 150.739 209.468 150.908L203 152.121L165.5 154.621L163.5 149.121Z" fill="#1E2017"/>
<path id="under-front-darkness-2" d="M168.755 152.266L199.861 148.621L200.372 152.99C200.501 154.087 199.716 155.08 198.619 155.209L169.5 158.621L168.755 152.266Z" fill="#1E2017"/>
<path id="under-front-darkness-3" d="M185 156.121L198.5 154V158.301C198.5 158.778 198.164 159.188 197.696 159.282L196 159.621L194 160.121H192.5L190.5 159.621L189 159.121L186.786 158.383C186.283 158.215 185.867 157.854 185.63 157.38L185 156.121Z" fill="#1E2017"/>
<path id="under-front-panel-3" d="M188.213 155.184C188.098 154.611 188.496 154.063 189.076 153.994L195.489 153.24C196.045 153.175 196.546 153.577 196.601 154.134L196.903 157.15C196.957 157.69 196.57 158.175 196.032 158.242L189.922 159.006C189.402 159.071 188.921 158.723 188.818 158.21L188.213 155.184Z" fill="#3F4039"/>
<path id="under-front-panel-1" d="M165.5 150.309C165.5 149.921 165.799 149.597 166.186 149.567L210 146.121L210 146.238C210 146.742 209.624 147.168 209.124 147.23L206 147.621L166.309 151.051C165.874 151.089 165.5 150.746 165.5 150.309Z" fill="#3F4039"/>
<path id="under-front-panel-2" d="M187.641 151.904C187.33 151.281 187.734 150.539 188.425 150.463L209.5 148.121L209.619 148.477C209.817 149.071 209.426 149.699 208.805 149.784L188.709 152.524C188.285 152.582 187.871 152.364 187.68 151.981L187.641 151.904Z" fill="#3F4039"/>
<path id="Rectangle 1" d="M190.113 156.135C190.051 155.578 190.458 155.079 191.016 155.029L194.524 154.71C195.066 154.66 195.548 155.054 195.608 155.595L195.887 158.107C195.949 158.664 195.542 159.163 194.984 159.213L191.476 159.532C190.934 159.582 190.452 159.188 190.392 158.647L190.113 156.135Z" fill="#1E2017"/>
</g>
<g id="side" filter="url(#filter2_d_4_2)">
<path id="side-wall" d="M123.883 118.135L123.746 118.168L123.646 118.267L122.646 119.267L122.516 119.398L122.502 119.581L121.502 132.081L121.496 132.151L121.51 132.219L122.984 139.591C123.342 141.38 124.744 142.776 126.535 143.125L164.904 150.612L165.493 150.727L165.5 150.127L166 108.627L166.008 107.984L165.383 108.135L123.883 118.135Z" fill="#A09C8E" stroke="black"/>
<path id="side-stripe-1" d="M123 138.121L153.664 139.979C154.57 140.034 154.987 141.134 154.345 141.776C154.126 141.995 153.822 142.106 153.514 142.081L123.5 139.621L123 138.121Z" fill="#727168"/>
<path id="side-stripe-2" d="M122 133.621L154.777 134.007C155.354 134.013 155.734 134.61 155.496 135.135C155.363 135.429 155.066 135.615 154.744 135.605L122.5 134.621L122 133.621Z" fill="#727168"/>
<path id="side-window-3" d="M136.915 118.564C136.137 118.661 135.54 119.299 135.494 120.081L134.938 129.526C134.883 130.459 135.626 131.246 136.561 131.246H139.887C140.75 131.246 141.462 130.572 141.51 129.711L141.791 124.656L142.058 119.852C142.114 118.84 141.24 118.024 140.234 118.149L136.915 118.564Z" fill="#92AFB1" stroke="black" stroke-width="1.25"/>
<path id="side-window-2" d="M156.624 123.163L156.624 123.16L157.04 116.504C157.108 115.416 156.107 114.571 155.046 114.821L148.571 116.345C147.88 116.507 147.375 117.099 147.323 117.806L146.456 129.501C146.386 130.443 147.132 131.246 148.077 131.246H154.564C155.42 131.246 156.129 130.583 156.186 129.729L156.624 123.163Z" fill="#92AFB1" stroke="black" stroke-width="1.25"/>
<path id="side-window-1" d="M128.674 120.887C127.903 120.996 127.318 121.635 127.277 122.412L126.931 129.036C126.882 129.966 127.623 130.746 128.554 130.746H130.104C130.97 130.746 131.684 130.066 131.727 129.201L131.902 125.652L132.065 122.36C132.115 121.341 131.225 120.528 130.215 120.67L128.674 120.887Z" fill="#92AFB1" stroke="black" stroke-width="1.25"/>
<path id="side-top" d="M180.239 100.06L179.86 99.1408L127.378 114.408C125.639 114.914 124.19 116.123 123.38 117.743L123.053 118.397L122.567 119.37L123.621 119.106L163.621 109.106L163.683 109.091L163.739 109.06L180.239 100.06Z" fill="#A09C8E" stroke="black"/>
</g>
<g id="front" filter="url(#filter3_d_4_2)">
<path id="front-head" d="M174.184 101.172L174.166 101.178L174.149 101.185L169.707 102.85C165.961 104.255 163.412 107.757 163.228 111.754L162.501 127.575L162.5 127.598V127.621V133.621V138.621V138.666L162.504 138.711L163.416 148.739C163.514 149.821 164.457 150.626 165.541 150.554L187.067 149.119L187.087 149.117L187.108 149.115L209.12 146.722C210.213 146.604 211.006 145.624 210.893 144.53L208.995 126.019L208.994 126.009L208.992 125.998L207.428 113.326C206.806 108.288 203.505 103.981 198.802 102.07L197.876 101.694L197.821 101.672L197.763 101.656L192.263 100.156L192.214 100.143L192.164 100.135L189.899 99.757C189.356 99.6664 188.806 99.6209 188.255 99.6209H186H180.891C180.233 99.6209 179.576 99.686 178.93 99.8151L177.304 100.14L177.243 100.153L177.184 100.172L174.184 101.172Z" fill="#A09C8E" stroke="black" stroke-width="2"/>
<path id="front-headlight-3" d="M204 142.121C205.738 142.121 207 140.465 207 138.621C207 136.777 205.738 135.121 204 135.121C202.262 135.121 201 136.777 201 138.621C201 140.465 202.262 142.121 204 142.121Z" fill="#F5BD66" stroke="black"/>
<path id="front-headlight-2" d="M178 144.121C179.738 144.121 181 142.465 181 140.621C181 138.777 179.738 137.121 178 137.121C176.262 137.121 175 138.777 175 140.621C175 142.465 176.262 144.121 178 144.121Z" fill="#F5BD66" stroke="black"/>
<path id="front-headlight-1" d="M170.5 143.121C171.881 143.121 173 142.002 173 140.621C173 139.24 171.881 138.121 170.5 138.121C169.119 138.121 168 139.24 168 140.621C168 142.002 169.119 143.121 170.5 143.121Z" fill="#F5BD66" stroke="black"/>
<path id="front-paint-1" d="M165.71 107.202C165.902 106.817 166.155 106.466 166.459 106.162L168 104.621L170.5 103.621L175 101.621L178 100.621H179.5H182H185.5H189L192.5 101.121L196 102.121L198 102.621L200 103.621L202 105.121L204.135 106.646C205.008 107.27 205.594 108.218 205.762 109.277L207 117.121L208.5 129.121C208.5 129.738 208.165 130.307 207.626 130.607L204 132.621L200.5 134.121L196 134.621L184 135.121L177 134.121L170 132.621L164.456 130.915C163.888 130.74 163.5 130.215 163.5 129.621V128.621L164 112.621V112.121L164.5 109.621L165.71 107.202Z" fill="#45423C"/>
<path id="front-door-1" d="M183.752 148.177L183.809 148.941L184.572 148.867L197.104 147.655C199.156 147.456 200.664 145.637 200.477 143.583L197.495 110.781C197.319 108.85 195.7 107.371 193.76 107.371L183.656 107.371C182.056 107.371 180.794 108.731 180.913 110.327L183.752 148.177Z" fill="#A09C8E" stroke="black" stroke-width="1.5"/>
<path id="front-window-1" d="M192.111 110.496L186.674 110.496C185.138 110.496 183.93 111.809 184.058 113.339L185.216 127.234C185.334 128.651 186.558 129.716 187.977 129.637L193.035 129.356C194.484 129.276 195.593 128.034 195.51 126.585L194.732 112.971C194.652 111.582 193.503 110.496 192.111 110.496Z" fill="#92AFB1" stroke="black" stroke-width="1.25"/>
<g id="front-window-2">
<mask id="path-23-outside-1_4_2" maskUnits="userSpaceOnUse" x="196.085" y="108.477" width="11.5334" height="21.6853" fill="black">
<rect fill="white" x="196.085" y="108.477" width="11.5334" height="21.6853"/>
<path d="M205.141 125.26L203.234 113.109C203.095 112.228 202.391 111.545 201.506 111.434L199.113 111.135C199.043 111.126 198.982 111.082 198.952 111.017C198.856 110.811 198.547 110.889 198.559 111.115L199.475 127.667C199.489 127.922 199.699 128.121 199.954 128.121C199.985 128.121 200.015 128.118 200.045 128.112L202.815 127.579C202.938 127.555 203.063 127.543 203.189 127.543C204.403 127.543 205.33 126.459 205.141 125.26Z"/>
</mask>
<path d="M205.141 125.26L203.234 113.109C203.095 112.228 202.391 111.545 201.506 111.434L199.113 111.135C199.043 111.126 198.982 111.082 198.952 111.017C198.856 110.811 198.547 110.889 198.559 111.115L199.475 127.667C199.489 127.922 199.699 128.121 199.954 128.121C199.985 128.121 200.015 128.118 200.045 128.112L202.815 127.579C202.938 127.555 203.063 127.543 203.189 127.543C204.403 127.543 205.33 126.459 205.141 125.26Z" fill="#92AFB1"/>
<path d="M203.234 113.109L201.999 113.302L203.234 113.109ZM205.141 125.26L203.907 125.454L205.141 125.26ZM199.475 127.667L200.723 127.598L199.475 127.667ZM198.559 111.115L199.807 111.046L198.559 111.115ZM199.113 111.135L199.268 109.895L199.268 109.895L199.113 111.135ZM201.506 111.434L201.351 112.675L201.351 112.675L201.506 111.434ZM202.815 127.579L203.051 128.806L203.051 128.806L202.815 127.579ZM200.045 128.112L200.281 129.34L200.281 129.34L200.045 128.112ZM199.954 128.121L199.954 129.371L199.954 129.371L199.954 128.121ZM198.952 111.017L200.086 110.491L200.086 110.491L198.952 111.017ZM203.189 127.543L203.189 128.793L203.189 128.793L203.189 127.543ZM201.999 113.302L203.907 125.454L206.376 125.066L204.468 112.915L201.999 113.302ZM200.723 127.598L199.807 111.046L197.311 111.184L198.227 127.736L200.723 127.598ZM198.958 112.375L201.351 112.675L201.661 110.194L199.268 109.895L198.958 112.375ZM202.578 126.351L199.809 126.885L200.281 129.34L203.051 128.806L202.578 126.351ZM199.809 126.885C199.857 126.876 199.905 126.871 199.954 126.871L199.954 129.371C200.064 129.371 200.174 129.36 200.281 129.34L199.809 126.885ZM197.818 111.543C198.029 111.999 198.46 112.313 198.958 112.375L199.268 109.895C199.625 109.939 199.934 110.165 200.086 110.491L197.818 111.543ZM203.189 126.293C202.984 126.293 202.779 126.313 202.578 126.351L203.051 128.806C203.096 128.798 203.142 128.793 203.189 128.793L203.189 126.293ZM198.227 127.736C198.278 128.653 199.036 129.371 199.954 129.371L199.954 126.871C200.363 126.871 200.7 127.19 200.723 127.598L198.227 127.736ZM203.907 125.454C203.976 125.895 203.635 126.293 203.189 126.293L203.189 128.793C205.17 128.793 206.684 127.024 206.376 125.066L203.907 125.454ZM204.468 112.915C204.244 111.483 203.099 110.374 201.661 110.194L201.351 112.675C201.683 112.716 201.947 112.972 201.999 113.302L204.468 112.915ZM199.807 111.046C199.871 112.195 198.302 112.587 197.818 111.543L200.086 110.491C199.411 109.036 197.223 109.583 197.311 111.184L199.807 111.046Z" fill="black" mask="url(#path-23-outside-1_4_2)"/>
</g>
<path id="front-icon" d="M173 126.371C177.129 126.371 179.75 122.764 179.75 118.621C179.75 116.541 179.103 114.503 177.945 112.969C176.78 111.427 175.073 110.371 173 110.371C170.521 110.371 168.674 111.384 167.466 112.966C166.279 114.522 165.75 116.571 165.75 118.621C165.75 122.848 168.945 126.371 173 126.371Z" fill="#4DAD8C" stroke="black" stroke-width="1.5"/>
<path id="front-six" d="M172.557 122.74C172.108 122.737 171.675 122.662 171.257 122.514C170.842 122.367 170.47 122.127 170.141 121.794C169.811 121.462 169.55 121.022 169.357 120.473C169.166 119.925 169.071 119.252 169.071 118.453C169.074 117.72 169.158 117.066 169.322 116.489C169.49 115.909 169.729 115.418 170.038 115.014C170.351 114.611 170.724 114.304 171.159 114.094C171.594 113.881 172.081 113.774 172.621 113.774C173.203 113.774 173.717 113.888 174.163 114.115C174.609 114.34 174.967 114.645 175.237 115.031C175.51 115.418 175.675 115.851 175.732 116.331H173.912C173.841 116.027 173.692 115.789 173.464 115.615C173.237 115.442 172.956 115.355 172.621 115.355C172.053 115.355 171.621 115.602 171.325 116.097C171.033 116.591 170.884 117.263 170.878 118.112H170.938C171.068 117.854 171.244 117.634 171.466 117.452C171.69 117.267 171.945 117.127 172.229 117.03C172.516 116.931 172.818 116.881 173.136 116.881C173.653 116.881 174.114 117.003 174.517 117.247C174.92 117.489 175.239 117.821 175.472 118.245C175.705 118.668 175.821 119.152 175.821 119.698C175.821 120.289 175.683 120.814 175.408 121.274C175.135 121.735 174.753 122.095 174.261 122.357C173.773 122.615 173.205 122.743 172.557 122.74ZM172.548 121.291C172.832 121.291 173.087 121.223 173.311 121.087C173.536 120.95 173.712 120.766 173.839 120.533C173.967 120.3 174.031 120.039 174.031 119.749C174.031 119.459 173.967 119.199 173.839 118.969C173.714 118.739 173.541 118.556 173.32 118.419C173.098 118.283 172.845 118.215 172.561 118.215C172.348 118.215 172.151 118.254 171.969 118.334C171.79 118.414 171.632 118.524 171.496 118.666C171.362 118.808 171.257 118.973 171.18 119.161C171.104 119.345 171.065 119.543 171.065 119.753C171.065 120.034 171.129 120.291 171.257 120.524C171.388 120.757 171.564 120.943 171.786 121.083C172.01 121.222 172.264 121.291 172.548 121.291Z" fill="white"/>
</g>
</g>
<rect id="hacks-backdrop" x="12" y="98" width="125" height="63" rx="31.5" fill="#271C2A"/>
<path id="hunter" d="M49.824 59.4H59.328V93H49.824V59.4ZM36.864 93H27.36V59.4H36.864V93ZM50.496 79.896H36.192V72.024H50.496V79.896ZM76.5439 93.432C74.4319 93.432 72.5279 93.016 70.8319 92.184C69.1679 91.352 67.8559 90.056 66.8959 88.296C65.9679 86.504 65.5039 84.248 65.5039 81.528V66.984H74.6239V80.04C74.6239 82.056 74.9919 83.496 75.7279 84.36C76.4959 85.224 77.5679 85.656 78.9439 85.656C79.8399 85.656 80.6559 85.448 81.3919 85.032C82.1279 84.616 82.7199 83.96 83.1679 83.064C83.6159 82.136 83.8399 80.952 83.8399 79.512V66.984H92.9599V93H84.2719V85.656L85.9519 87.72C85.0559 89.64 83.7599 91.08 82.0639 92.04C80.3679 92.968 78.5279 93.432 76.5439 93.432ZM115.778 66.552C117.794 66.552 119.618 66.968 121.25 67.8C122.882 68.6 124.162 69.848 125.09 71.544C126.05 73.24 126.53 75.432 126.53 78.12V93H117.41V79.608C117.41 77.752 117.026 76.408 116.258 75.576C115.522 74.712 114.482 74.28 113.138 74.28C112.178 74.28 111.298 74.504 110.498 74.952C109.698 75.368 109.074 76.024 108.626 76.92C108.178 77.816 107.954 78.984 107.954 80.424V93H98.8343V66.984H107.522V74.376L105.842 72.216C106.834 70.328 108.194 68.92 109.922 67.992C111.65 67.032 113.602 66.552 115.778 66.552ZM143.872 93.432C140.544 93.432 137.952 92.616 136.096 90.984C134.24 89.32 133.312 86.824 133.312 83.496V61.176H142.432V83.4C142.432 84.328 142.688 85.064 143.2 85.608C143.712 86.12 144.368 86.376 145.168 86.376C146.256 86.376 147.184 86.104 147.952 85.56L150.208 91.944C149.44 92.456 148.496 92.824 147.376 93.048C146.256 93.304 145.088 93.432 143.872 93.432ZM129.52 74.76V67.944H148.384V74.76H129.52ZM166.607 93.432C163.535 93.432 160.847 92.856 158.543 91.704C156.271 90.52 154.495 88.92 153.215 86.904C151.967 84.856 151.343 82.536 151.343 79.944C151.343 77.352 151.951 75.048 153.167 73.032C154.415 70.984 156.127 69.4 158.303 68.28C160.479 67.128 162.927 66.552 165.647 66.552C168.207 66.552 170.543 67.08 172.655 68.136C174.767 69.16 176.447 70.68 177.695 72.696C178.943 74.712 179.567 77.16 179.567 80.04C179.567 80.36 179.551 80.728 179.519 81.144C179.487 81.56 179.455 81.944 179.423 82.296H158.831V77.496H174.575L171.119 78.84C171.151 77.656 170.927 76.632 170.447 75.768C169.999 74.904 169.359 74.232 168.527 73.752C167.727 73.272 166.783 73.032 165.695 73.032C164.607 73.032 163.647 73.272 162.815 73.752C162.015 74.232 161.391 74.92 160.943 75.816C160.495 76.68 160.271 77.704 160.271 78.888V80.28C160.271 81.56 160.527 82.664 161.039 83.592C161.583 84.52 162.351 85.24 163.343 85.752C164.335 86.232 165.519 86.472 166.895 86.472C168.175 86.472 169.263 86.296 170.159 85.944C171.087 85.56 171.999 84.984 172.895 84.216L177.695 89.208C176.447 90.584 174.911 91.64 173.087 92.376C171.263 93.08 169.103 93.432 166.607 93.432ZM183.772 93V66.984H192.46V74.568L191.164 72.408C191.932 70.456 193.18 69 194.908 68.04C196.636 67.048 198.732 66.552 201.196 66.552V74.76C200.78 74.696 200.412 74.664 200.092 74.664C199.804 74.632 199.484 74.616 199.132 74.616C197.276 74.616 195.772 75.128 194.62 76.152C193.468 77.144 192.892 78.776 192.892 81.048V93H183.772Z" fill="white"/>
<path id="hacks" d="M25.32 140.12C25.16 140.12 25 140.067 24.84 139.96C24.68 139.853 24.6 139.707 24.6 139.52C24.6 139.067 24.8533 138.773 25.36 138.64C26.2667 138.427 26.8933 138.16 27.24 137.84C27.5867 137.52 27.76 136.947 27.76 136.12V117.96C27.76 117.107 27.5867 116.507 27.24 116.16C26.92 115.813 26.2933 115.52 25.36 115.28C24.8533 115.147 24.6 114.853 24.6 114.4C24.6 114.213 24.68 114.067 24.84 113.96C25 113.853 25.16 113.8 25.32 113.8C25.9067 113.8 26.5467 113.813 27.24 113.84C27.9333 113.867 28.6133 113.907 29.28 113.96C29.9467 113.987 30.5467 114 31.08 114C31.6133 114 32.2533 113.987 33 113.96C33.7467 113.933 34.5067 113.907 35.28 113.88C36.0533 113.853 36.72 113.84 37.28 113.84C37.7067 113.84 37.92 114.04 37.92 114.44C37.92 114.707 37.8533 114.893 37.72 115C37.5867 115.107 37.4 115.2 37.16 115.28C36.0667 115.6 35.36 115.933 35.04 116.28C34.72 116.627 34.56 117.2 34.56 118V125.08C34.56 125.293 34.6133 125.453 34.72 125.56C34.8533 125.64 35.0133 125.68 35.2 125.68H44.84C45.2133 125.68 45.4 125.48 45.4 125.08V118C45.4 117.2 45.24 116.627 44.92 116.28C44.6 115.933 43.8933 115.6 42.8 115.28C42.56 115.2 42.3733 115.107 42.24 115C42.1067 114.893 42.04 114.707 42.04 114.44C42.04 114.04 42.2533 113.84 42.68 113.84C43.24 113.84 43.9067 113.853 44.68 113.88C45.4533 113.907 46.2133 113.933 46.96 113.96C47.7333 113.987 48.3733 114 48.88 114C49.4133 114 50.0133 113.987 50.68 113.96C51.3467 113.907 52.0267 113.867 52.72 113.84C53.4133 113.813 54.0533 113.8 54.64 113.8C54.8 113.8 54.96 113.853 55.12 113.96C55.28 114.067 55.36 114.213 55.36 114.4C55.36 114.853 55.1067 115.147 54.6 115.28C53.6667 115.52 53.0267 115.813 52.68 116.16C52.36 116.507 52.2 117.107 52.2 117.96V136.12C52.2 136.947 52.3733 137.52 52.72 137.84C53.0667 138.16 53.6933 138.427 54.6 138.64C55.1067 138.773 55.36 139.067 55.36 139.52C55.36 139.707 55.28 139.853 55.12 139.96C54.96 140.067 54.8 140.12 54.64 140.12C54.1333 140.12 53.5333 140.093 52.84 140.04C52.1467 140.013 51.44 139.987 50.72 139.96C50.0267 139.933 49.4133 139.92 48.88 139.92C48.3733 139.92 47.7333 139.933 46.96 139.96C46.2133 139.987 45.4533 140.013 44.68 140.04C43.9067 140.067 43.24 140.08 42.68 140.08C42.4933 140.08 42.3333 140.027 42.2 139.92C42.0933 139.813 42.04 139.667 42.04 139.48C42.04 139.213 42.1067 139.027 42.24 138.92C42.3733 138.813 42.56 138.72 42.8 138.64C43.84 138.347 44.5333 138.04 44.88 137.72C45.2267 137.373 45.4 136.827 45.4 136.08V128.64C45.4 128.427 45.36 128.267 45.28 128.16C45.2 128.027 45.0533 127.96 44.84 127.96H35.2C34.7733 127.96 34.56 128.187 34.56 128.64V136.08C34.56 136.827 34.7333 137.373 35.08 137.72C35.4267 138.04 36.12 138.347 37.16 138.64C37.4 138.72 37.5867 138.813 37.72 138.92C37.8533 139.027 37.92 139.213 37.92 139.48C37.92 139.667 37.8667 139.813 37.76 139.92C37.6533 140.027 37.4933 140.08 37.28 140.08C36.72 140.08 36.0533 140.067 35.28 140.04C34.5067 140.013 33.7467 139.987 33 139.96C32.2533 139.933 31.6133 139.92 31.08 139.92C30.5467 139.92 29.92 139.933 29.2 139.96C28.5067 139.987 27.8133 140.013 27.12 140.04C26.4267 140.093 25.8267 140.12 25.32 140.12ZM61.2331 140.56C60.4598 140.56 59.7531 140.387 59.1131 140.04C58.4731 139.72 57.9665 139.28 57.5931 138.72C57.2198 138.133 57.0331 137.493 57.0331 136.8C57.0331 135.867 57.3265 135.08 57.9131 134.44C58.5265 133.8 59.4065 133.227 60.5531 132.72L63.9931 131.2C64.5265 130.96 64.8598 130.747 64.9931 130.56C65.1265 130.347 65.1931 129.987 65.1931 129.48L65.2331 127.28C65.2598 126.507 65.1398 125.92 64.8731 125.52C64.6065 125.093 64.1931 124.88 63.6331 124.88C63.3131 124.88 62.9798 124.96 62.6331 125.12C62.2865 125.253 62.0331 125.413 61.8731 125.6C61.7931 125.707 61.7398 125.827 61.7131 125.96C61.6865 126.093 61.6731 126.227 61.6731 126.36C61.6731 126.52 61.6865 126.733 61.7131 127C61.7398 127.24 61.7531 127.44 61.7531 127.6C61.7531 127.787 61.5265 128.013 61.0731 128.28C60.6198 128.52 60.0998 128.747 59.5131 128.96C58.9265 129.147 58.4198 129.24 57.9931 129.24C57.7798 129.24 57.5931 129.16 57.4331 129C57.2998 128.813 57.2331 128.587 57.2331 128.32C57.2331 127.893 57.3798 127.48 57.6731 127.08C57.9665 126.68 58.4598 126.2 59.1531 125.64C59.8731 125.053 60.6598 124.533 61.5131 124.08C62.3665 123.627 63.2065 123.267 64.0331 123C64.8598 122.707 65.5665 122.56 66.1531 122.56C67.6731 122.56 68.8865 123.053 69.7931 124.04C70.6998 125 71.1265 126.293 71.0731 127.92L70.8731 135.68C70.8465 136.293 70.9398 136.827 71.1531 137.28C71.3931 137.707 71.6865 137.92 72.0331 137.92C72.5131 137.92 72.9398 137.747 73.3131 137.4C73.3931 137.32 73.4731 137.28 73.5531 137.28C73.6865 137.28 73.7931 137.333 73.8731 137.44C73.9798 137.52 74.0331 137.627 74.0331 137.76C74.0331 138.08 73.7665 138.507 73.2331 139.04C72.7265 139.547 72.1798 139.92 71.5931 140.16C71.0065 140.427 70.3931 140.56 69.7531 140.56C68.2065 140.56 66.9131 139.787 65.8731 138.24H65.7931C64.9131 139.067 64.1265 139.653 63.4331 140C62.7398 140.373 62.0065 140.56 61.2331 140.56ZM63.7131 137.8C63.9531 137.8 64.1531 137.76 64.3131 137.68C64.4731 137.6 64.6198 137.467 64.7531 137.28C64.8331 137.173 64.8865 137.04 64.9131 136.88C64.9665 136.72 64.9931 136.547 64.9931 136.36L65.1131 133.28C65.1131 133.04 65.0731 132.893 64.9931 132.84C64.9131 132.76 64.8198 132.72 64.7131 132.72C64.6598 132.72 64.5931 132.733 64.5131 132.76C64.4598 132.76 64.3931 132.787 64.3131 132.84C63.6731 133.187 63.1798 133.547 62.8331 133.92C62.5131 134.267 62.3531 134.907 62.3531 135.84C62.3531 136.613 62.4998 137.133 62.7931 137.4C63.1131 137.667 63.4198 137.8 63.7131 137.8ZM82.2838 140.56C80.8438 140.56 79.5504 140.173 78.4038 139.4C77.2571 138.627 76.3504 137.587 75.6838 136.28C75.0171 134.947 74.6838 133.453 74.6838 131.8C74.6838 130.067 75.0838 128.507 75.8838 127.12C76.7104 125.733 77.8038 124.627 79.1638 123.8C80.5238 122.973 82.0438 122.56 83.7238 122.56C86.0171 122.56 87.8971 123.333 89.3638 124.88C89.5771 125.147 89.6838 125.387 89.6838 125.6C89.6838 125.76 89.5638 126 89.3238 126.32C89.0838 126.613 88.8038 126.893 88.4838 127.16C88.1904 127.4 87.9371 127.52 87.7238 127.52C87.4571 127.52 87.2038 127.44 86.9638 127.28C86.7238 127.12 86.4971 126.947 86.2838 126.76C85.5638 126.147 84.8438 125.667 84.1237 125.32C83.4304 124.947 82.8171 124.76 82.2838 124.76C81.3504 124.76 80.6571 125.147 80.2038 125.92C79.7504 126.667 79.5238 127.987 79.5238 129.88C79.5238 131.187 79.7104 132.307 80.0838 133.24C80.4571 134.173 81.0171 134.893 81.7638 135.4C82.5104 135.88 83.4304 136.12 84.5238 136.12C85.3238 136.12 86.0171 135.987 86.6038 135.72C87.2171 135.453 87.8438 135.08 88.4838 134.6C88.6171 134.493 88.7371 134.4 88.8438 134.32C88.9504 134.24 89.0704 134.2 89.2038 134.2C89.5238 134.2 89.6838 134.413 89.6838 134.84C89.6838 134.947 89.6704 135.093 89.6438 135.28C89.6171 135.467 89.5504 135.68 89.4438 135.92C89.2304 136.453 88.7771 137.093 88.0838 137.84C87.3904 138.56 86.5504 139.2 85.5638 139.76C84.5771 140.293 83.4838 140.56 82.2838 140.56ZM91.3375 140.12C90.8042 140.12 90.5375 139.92 90.5375 139.52C90.5375 139.307 90.6175 139.147 90.7775 139.04C90.9375 138.907 91.1642 138.787 91.4575 138.68C91.8575 138.547 92.2042 138.413 92.4975 138.28C92.7908 138.12 92.9375 137.747 92.9375 137.16V118.16C92.9375 117.44 92.8442 116.813 92.6575 116.28C92.4975 115.747 92.0842 115.413 91.4175 115.28C91.1242 115.227 90.9775 115.013 90.9775 114.64C90.9775 114.293 91.1108 114.093 91.3775 114.04C92.0442 113.907 92.8042 113.707 93.6575 113.44C94.5108 113.147 95.3242 112.853 96.0975 112.56C96.8975 112.267 97.4975 112.053 97.8975 111.92C98.1375 111.84 98.3242 111.8 98.4575 111.8C98.6442 111.8 98.7642 111.853 98.8175 111.96C98.8708 112.067 98.8975 112.187 98.8975 112.32C98.8975 112.507 98.8708 112.827 98.8175 113.28C98.7642 113.707 98.7242 114.107 98.6975 114.48L98.7375 129.84C98.7375 130.187 98.8575 130.36 99.0975 130.36C99.1775 130.36 99.2575 130.333 99.3375 130.28C99.4442 130.227 99.5242 130.187 99.5775 130.16C100.538 129.307 101.404 128.44 102.178 127.56C102.978 126.653 103.511 125.987 103.778 125.56C103.884 125.4 103.964 125.267 104.018 125.16C104.098 125.027 104.138 124.92 104.138 124.84C104.138 124.707 104.031 124.573 103.818 124.44C103.604 124.28 103.271 124.173 102.818 124.12C102.498 124.067 102.338 123.907 102.338 123.64C102.338 123.4 102.431 123.253 102.618 123.2C102.831 123.12 103.031 123.08 103.218 123.08H105.178C105.658 123.08 106.311 123.067 107.138 123.04C107.991 122.987 108.818 122.933 109.618 122.88C110.444 122.8 111.031 122.747 111.378 122.72C111.671 122.72 111.818 122.88 111.818 123.2C111.818 123.413 111.738 123.6 111.578 123.76C111.418 123.893 111.191 123.987 110.898 124.04C110.444 124.147 109.898 124.333 109.258 124.6C108.618 124.867 107.951 125.2 107.258 125.6C106.751 125.867 106.244 126.173 105.738 126.52C105.231 126.84 104.751 127.173 104.298 127.52C103.871 127.867 103.484 128.213 103.138 128.56C103.004 128.693 102.938 128.84 102.938 129C102.938 129.107 102.964 129.2 103.018 129.28C103.098 129.333 103.164 129.4 103.218 129.48C103.858 130.307 104.444 131.12 104.978 131.92C105.511 132.693 106.058 133.453 106.618 134.2C107.178 134.947 107.804 135.72 108.498 136.52C108.951 137.027 109.498 137.493 110.137 137.92C110.804 138.32 111.351 138.6 111.778 138.76C111.991 138.84 112.218 138.933 112.458 139.04C112.724 139.147 112.858 139.307 112.858 139.52C112.858 139.92 112.564 140.12 111.977 140.12C110.244 140.12 108.578 140.093 106.978 140.04C105.404 140.013 103.951 140 102.618 140C102.084 140 101.818 139.8 101.818 139.4C101.818 139.187 101.898 139.027 102.058 138.92C102.218 138.787 102.444 138.667 102.738 138.56C102.951 138.48 103.084 138.4 103.138 138.32C103.218 138.213 103.271 138.107 103.298 138C103.298 137.867 103.244 137.733 103.138 137.6C103.058 137.44 102.938 137.253 102.778 137.04L99.1375 131.72C99.0842 131.667 99.0308 131.64 98.9775 131.64C98.8175 131.693 98.7375 131.8 98.7375 131.96C98.7375 132.36 98.7375 132.773 98.7375 133.2C98.7375 133.6 98.7375 134 98.7375 134.4C98.7375 134.827 98.7375 135.293 98.7375 135.8C98.7375 136.28 98.7375 136.747 98.7375 137.2C98.7375 137.627 98.8175 137.947 98.9775 138.16C99.1642 138.347 99.4708 138.507 99.8975 138.64C100.111 138.72 100.298 138.827 100.458 138.96C100.618 139.093 100.698 139.267 100.698 139.48C100.698 139.667 100.631 139.827 100.497 139.96C100.391 140.067 100.231 140.12 100.018 140.12C99.4842 140.12 98.9775 140.093 98.4975 140.04C98.0175 140.013 97.5508 139.987 97.0975 139.96C96.6442 139.933 96.1775 139.92 95.6975 139.92C95.2442 139.92 94.7775 139.933 94.2975 139.96C93.8442 139.987 93.3642 140.013 92.8575 140.04C92.3775 140.093 91.8708 140.12 91.3375 140.12ZM119.277 140.56C118.37 140.56 117.49 140.453 116.637 140.24C115.81 140.053 115.037 139.72 114.317 139.24C114.05 138.813 113.863 138.16 113.757 137.28C113.65 136.373 113.61 135.4 113.637 134.36C113.637 134.013 113.917 133.84 114.477 133.84C114.717 133.84 114.917 133.92 115.077 134.08C115.263 134.24 115.383 134.387 115.437 134.52C115.97 135.587 116.557 136.547 117.197 137.4C117.837 138.227 118.65 138.64 119.637 138.64C120.33 138.64 120.837 138.427 121.157 138C121.503 137.573 121.677 137.107 121.677 136.6C121.677 135.907 121.397 135.333 120.837 134.88C120.277 134.427 119.663 134.04 118.997 133.72C118.25 133.347 117.517 132.92 116.797 132.44C116.077 131.933 115.477 131.307 114.997 130.56C114.517 129.813 114.277 128.907 114.277 127.84C114.277 126.747 114.57 125.813 115.157 125.04C115.77 124.24 116.583 123.627 117.597 123.2C118.61 122.747 119.717 122.52 120.917 122.52C121.823 122.52 122.663 122.627 123.437 122.84C124.237 123.027 124.783 123.213 125.077 123.4C125.29 123.667 125.45 124.187 125.557 124.96C125.69 125.707 125.757 126.56 125.757 127.52C125.757 127.813 125.49 127.96 124.957 127.96C124.77 127.96 124.57 127.893 124.357 127.76C124.143 127.6 124.01 127.453 123.957 127.32C123.61 126.253 123.157 125.453 122.597 124.92C122.063 124.387 121.477 124.12 120.837 124.12C120.25 124.12 119.717 124.307 119.237 124.68C118.783 125.053 118.557 125.547 118.557 126.16C118.557 126.693 118.823 127.187 119.357 127.64C119.917 128.067 120.557 128.467 121.277 128.84C123.037 129.747 124.29 130.627 125.037 131.48C125.783 132.333 126.157 133.48 126.157 134.92C126.157 136.707 125.583 138.093 124.437 139.08C123.29 140.067 121.57 140.56 119.277 140.56Z" fill="white"/>
</g>
<defs>
<filter id="filter0_d_4_2" x="122.445" y="141.121" width="52.6343" height="25.5" filterUnits="userSpaceOnUse" color-interpolation-filters="sRGB">
<feFlood flood-opacity="0" result="BackgroundImageFix"/>
<feColorMatrix in="SourceAlpha" type="matrix" values="0 0 0 0 0 0 0 0 0 0 0 0 0 0 0 0 0 0 127 0" result="hardAlpha"/>
<feOffset dy="4"/>
<feGaussianBlur stdDeviation="2"/>
<feComposite in2="hardAlpha" operator="out"/>
<feColorMatrix type="matrix" values="0 0 0 0 0 0 0 0 0 0 0 0 0 0 0 0 0 0 0.25 0"/>
<feBlend mode="normal" in2="BackgroundImageFix" result="effect1_dropShadow_4_2"/>
<feBlend mode="normal" in="SourceGraphic" in2="effect1_dropShadow_4_2" result="shape"/>
</filter>
<filter id="filter1_d_4_2" x="159.5" y="146.121" width="55.7483" height="22" filterUnits="userSpaceOnUse" color-interpolation-filters="sRGB">
<feFlood flood-opacity="0" result="BackgroundImageFix"/>
<feColorMatrix in="SourceAlpha" type="matrix" values="0 0 0 0 0 0 0 0 0 0 0 0 0 0 0 0 0 0 127 0" result="hardAlpha"/>
<feOffset dy="4"/>
<feGaussianBlur stdDeviation="2"/>
<feComposite in2="hardAlpha" operator="out"/>
<feColorMatrix type="matrix" values="0 0 0 0 0 0 0 0 0 0 0 0 0 0 0 0 0 0 0.25 0"/>
<feBlend mode="normal" in2="BackgroundImageFix" result="effect1_dropShadow_4_2"/>
<feBlend mode="normal" in="SourceGraphic" in2="effect1_dropShadow_4_2" result="shape"/>
</filter>
<filter id="filter2_d_4_2" x="116.992" y="98.6608" width="67.4868" height="60.6714" filterUnits="userSpaceOnUse" color-interpolation-filters="sRGB">
<feFlood flood-opacity="0" result="BackgroundImageFix"/>
<feColorMatrix in="SourceAlpha" type="matrix" values="0 0 0 0 0 0 0 0 0 0 0 0 0 0 0 0 0 0 127 0" result="hardAlpha"/>
<feOffset dy="4"/>
<feGaussianBlur stdDeviation="2"/>
<feComposite in2="hardAlpha" operator="out"/>
<feColorMatrix type="matrix" values="0 0 0 0 0 0 0 0 0 0 0 0 0 0 0 0 0 0 0.25 0"/>
<feBlend mode="normal" in2="BackgroundImageFix" result="effect1_dropShadow_4_2"/>
<feBlend mode="normal" in="SourceGraphic" in2="effect1_dropShadow_4_2" result="shape"/>
</filter>
<filter id="filter3_d_4_2" x="157.5" y="98.6209" width="58.4041" height="60.9374" filterUnits="userSpaceOnUse" color-interpolation-filters="sRGB">
<feFlood flood-opacity="0" result="BackgroundImageFix"/>
<feColorMatrix in="SourceAlpha" type="matrix" values="0 0 0 0 0 0 0 0 0 0 0 0 0 0 0 0 0 0 127 0" result="hardAlpha"/>
<feOffset dy="4"/>
<feGaussianBlur stdDeviation="2"/>
<feComposite in2="hardAlpha" operator="out"/>
<feColorMatrix type="matrix" values="0 0 0 0 0 0 0 0 0 0 0 0 0 0 0 0 0 0 0.25 0"/>
<feBlend mode="normal" in2="BackgroundImageFix" result="effect1_dropShadow_4_2"/>
<feBlend mode="normal" in="SourceGraphic" in2="effect1_dropShadow_4_2" result="shape"/>
</filter>
</defs>
</svg>
